<svg height="512" viewBox="0 0 58 59" width="512" xmlns="http://www.w3.org/2000/svg"><g id="Page-1" fill="none" fill-rule="evenodd"><g id="024---Secured-Dates-Calendar" fill-rule="nonzero"><rect id="Rectangle-path" fill="#e64c3c" height="54" rx="5" width="58" y="5"/><rect id="Rectangle-path" fill="#ecf0f1" height="50" rx="2" transform="matrix(0 1 -1 0 62 4)" width="44" x="7" y="8"/><path id="Shape" d="m8 8c-.55228475 0-1-.44771525-1-1v-6c0-.55228475.44771525-1 1-1s1 .44771525 1 1v6c0 .55228475-.44771525 1-1 1z" fill="#95a5a5"/><path id="Shape" d="m14 8c-.5522847 0-1-.44771525-1-1v-6c0-.55228475.4477153-1 1-1s1 .44771525 1 1v6c0 .55228475-.4477153 1-1 1z" fill="#95a5a5"/><path id="Shape" d="m20 8c-.5522847 0-1-.44771525-1-1v-6c0-.55228475.4477153-1 1-1s1 .44771525 1 1v6c0 .55228475-.4477153 1-1 1z" fill="#95a5a5"/><path id="Shape" d="m26 8c-.5522847 0-1-.44771525-1-1v-6c0-.55228475.4477153-1 1-1s1 .44771525 1 1v6c0 .55228475-.4477153 1-1 1z" fill="#95a5a5"/><path id="Shape" d="m32 8c-.5522847 0-1-.44771525-1-1v-6c0-.55228475.4477153-1 1-1s1 .44771525 1 1v6c0 .55228475-.4477153 1-1 1z" fill="#95a5a5"/><path id="Shape" d="m38 8c-.5522847 0-1-.44771525-1-1v-6c0-.55228475.4477153-1 1-1s1 .44771525 1 1v6c0 .55228475-.4477153 1-1 1z" fill="#95a5a5"/><path id="Shape" d="m44 8c-.5522847 0-1-.44771525-1-1v-6c0-.55228475.4477153-1 1-1s1 .44771525 1 1v6c0 .55228475-.4477153 1-1 1z" fill="#95a5a5"/><path id="Shape" d="m50 8c-.5522847 0-1-.44771525-1-1v-6c0-.55228475.4477153-1 1-1s1 .44771525 1 1v6c0 .55228475-.4477153 1-1 1z" fill="#95a5a5"/><g fill="#f0c419"><circle id="Oval" cx="23" cy="18" r="3"/><circle id="Oval" cx="35" cy="18" r="3"/><circle id="Oval" cx="47" cy="18" r="3"/><circle id="Oval" cx="11" cy="28" r="3"/><circle id="Oval" cx="11" cy="38" r="3"/><circle id="Oval" cx="23" cy="38" r="3"/><circle id="Oval" cx="35" cy="38" r="3"/><circle id="Oval" cx="47" cy="38" r="3"/><circle id="Oval" cx="11" cy="48" r="3"/><circle id="Oval" cx="23" cy="48" r="3"/><circle id="Oval" cx="35" cy="48" r="3"/><circle id="Oval" cx="47" cy="48" r="3"/></g><path id="Shape" d="m22 32c-.2651948-.0000566-.5195073-.1054506-.707-.293l-2-2c-.3789722-.3923789-.3735524-1.0160848.0121814-1.4018186s1.0094397-.3911536 1.4018186-.0121814l1.138 1.137 3.323-4.985c.306518-.4595009.9274991-.583518 1.387-.277s.583518.9274991.277 1.387l-4 6c-.1648955.250626-.4336016.4139788-.732.445-.0333031.0020074-.0666969.0020074-.1 0z" fill="#4fba6f"/><path id="Shape" d="m34 32c-.2651948-.0000566-.5195073-.1054506-.707-.293l-2-2c-.3789722-.3923789-.3735524-1.0160848.0121814-1.4018186s1.0094397-.3911536 1.4018186-.0121814l1.138 1.137 3.323-4.985c.1982824-.297245.5400812-.4661283.8966441-.4430332s.6737195.2346599.832.555.1336383.7007882-.0646441.9980332l-4 6c-.1648955.250626-.4336016.4139788-.732.445-.0333031.0020074-.0666969.0020074-.1 0z" fill="#4fba6f"/><path id="Shape" d="m46 32c-.2651948-.0000566-.5195073-.1054506-.707-.293l-2-2c-.3789722-.3923789-.3735524-1.0160848.0121814-1.4018186s1.0094397-.3911536 1.4018186-.0121814l1.138 1.137 3.323-4.985c.1982824-.297245.5400812-.4661283.8966441-.4430332s.6737195.2346599.832.555.1336383.7007882-.0646441.9980332l-4 6c-.1648955.250626-.4336016.4139788-.732.445-.0333031.0020074-.0666969.0020074-.1 0z" fill="#4fba6f"/></g></g></svg>