<svg height="512" viewBox="0 0 60 60" width="512" xmlns="http://www.w3.org/2000/svg"><g id="Page-1" fill="none" fill-rule="evenodd"><g id="001---FPS" fill-rule="nonzero"><g id="Icons" transform="translate(1 1)"><path id="Shape" d="m31 2v12c0 1.1045695-.8954305 2-2 2s-2-.8954305-2-2v-12c.0032948-1.10320187.8967981-1.9967052 2-2 .5305905-.00282307 1.0395388.2101411 1.41.59.3798589.3704612.5928231.87940947.59 1.41z" fill="#f44335"/><path id="Shape" d="m31 44v12c0 1.1045695-.8954305 2-2 2s-2-.8954305-2-2v-12c.0032948-1.1032019.8967981-1.9967052 2-2 1.1011688.0081672 1.9918328.8988312 2 2z" fill="#f44335"/><path id="Shape" d="m58 29c-.0081672 1.1011688-.8988312 1.9918328-2 2h-12c-1.1045695 0-2-.8954305-2-2s.8954305-2 2-2h12c1.1032019.0032948 1.9967052.8967981 2 2z" fill="#f44335"/><path id="Shape" d="m56 27h-3c1.1032019.0032948 1.9967052.8967981 2 2-.0081672 1.1011688-.8988312 1.9918328-2 2h3c1.1011688-.0081672 1.9918328-.8988312 2-2-.0032948-1.1032019-.8967981-1.9967052-2-2z" fill="#c81e1e"/><path id="Shape" d="m16 29c-.0081672 1.1011688-.8988312 1.9918328-2 2h-12c-1.1045695 0-2-.8954305-2-2s.8954305-2 2-2h12c1.1032019.0032948 1.9967052.8967981 2 2z" fill="#f44335"/><circle id="Oval" cx="29" cy="29" fill="#f5f5f5" r="13"/><path id="Shape" d="m29 16c-.5013727.0021196-1.0022053.0331712-1.5.093 6.5547585.7579324 11.5005523 6.3085668 11.5005523 12.907s-4.9457938 12.1490676-11.5005523 12.907c4.8017364.577143 9.5269407-1.5589761 12.2658122-5.5449953 2.7388716-3.9860191 3.0386134-9.1629598.7780779-13.4384417-2.2605356-4.2754819-6.7076311-6.9426717-11.5438901-6.923563z" fill="#cfd8dc"/><g fill="#f44335"><path id="Shape" d="m29 42c-1.1032019.0032948-1.9967052.8967981-2 2v1.88c-7.8027454-.9252037-13.9547963-7.0772546-14.88-14.88h1.88c1.1011688-.0081672 1.9918328-.8988312 2-2 0 7.1797017 5.8202983 13 13 13z"/><path id="Shape" d="m45.88 27h-1.88c-1.1032019.0032948-1.9967052.8967981-2 2 0-3.4478144-1.3696389-6.7544152-3.8076118-9.1923882-2.437973-2.4379729-5.7445738-3.8076118-9.1923882-3.8076118 1.1032019-.0032948 1.9967052-.8967981 2-2v-1.88c7.8027454.9252037 13.9547963 7.0772546 14.88 14.88z"/><path id="Shape" d="m45.88 31c-.9252037 7.8027454-7.0772546 13.9547963-14.88 14.88v-1.88c-.0081672-1.1011688-.8988312-1.9918328-2-2 7.1797017 0 13-5.8202983 13-13 .0032948 1.1032019.8967981 1.9967052 2 2z"/><path id="Shape" d="m29 16c-7.1797017 0-13 5.8202983-13 13-.0032948-1.1032019-.8967981-1.9967052-2-2h-1.88c.9252037-7.8027454 7.0772546-13.9547963 14.88-14.88v1.88c.0032948 1.1032019.8967981 1.9967052 2 2z"/><path id="Shape" d="m27 49.9v4.01c-12.2289325-.9691834-21.94081655-10.6810675-22.91-22.91h4.01c.95585623 10.0155949 8.8844051 17.9441438 18.9 18.9z"/><path id="Shape" d="m53.91 27h-4.01c-.9558562-10.0155949-8.8844051-17.94414377-18.9-18.9v-4.01c12.2289325.96918345 21.9408166 10.6810675 22.91 22.91z"/></g><path id="Shape" d="m31 4.09v.441c10.9037514 2.21331884 19.0247962 11.3781484 19.91 22.469h3c-.9691834-12.2289325-10.6810675-21.94081655-22.91-22.91z" fill="#c81e1e"/><path id="Shape" d="m53.91 31c-.9691834 12.2289325-10.6810675 21.9408166-22.91 22.91v-4.01c10.0155949-.9558562 17.9441438-8.8844051 18.9-18.9z" fill="#f44335"/><path id="Shape" d="m50.91 31c-.8855295 11.0907129-9.0064255 20.2553745-19.91 22.469v.441c12.2289325-.9691834 21.9408166-10.6810675 22.91-22.91z" fill="#c81e1e"/><path id="Shape" d="m27 4.09v4.01c-10.0155949.95585623-17.94414377 8.8844051-18.9 18.9h-4.01c.96918345-12.2289325 10.6810675-21.94081655 22.91-22.91z" fill="#f44335"/><path id="Shape" d="m27 45.88v4.02c-10.0155949-.9558562-17.94414377-8.8844051-18.9-18.9h4.02c.9252037 7.8027454 7.0772546 13.9547963 14.88 14.88z" fill="#f5f5f5"/><path id="Shape" d="m49.9 27h-4.02c-.9252037-7.8027454-7.0772546-13.9547963-14.88-14.88v-4.02c10.0155949.95585623 17.9441438 8.8844051 18.9 18.9z" fill="#f5f5f5"/><path id="Shape" d="m49.9 31c-.9558562 10.0155949-8.8844051 17.9441438-18.9 18.9v-4.02c7.8027454-.9252037 13.9547963-7.0772546 14.88-14.88z" fill="#f5f5f5"/><rect id="Rectangle-path" fill="#02a9f4" height="4" rx="2" width="16"/><circle id="Oval" cx="29" cy="29" fill="#f44335" r="3"/><path id="Shape" d="m27 8.1v4.02c-7.8027454.9252037-13.9547963 7.0772546-14.88 14.88h-4.02c.95585623-10.0155949 8.8844051-17.94414377 18.9-18.9z" fill="#f5f5f5"/></g><g id="Icons_copy" fill="#000"><path id="Shape" d="m57 27h-1.208c-1.4381441-11.9414287-10.8505713-21.35385588-22.792-22.792v-1.208c0-1.65685425-1.3431458-3-3-3s-3 1.34314575-3 3v1.208c-11.9414287 1.43814412-21.35385588 10.8505713-22.792 22.792h-1.208c-1.65685425 0-3 1.3431458-3 3s1.34314575 3 3 3h1.208c1.43814412 11.9414287 10.8505713 21.3538559 22.792 22.792v1.208c0 1.6568542 1.3431458 3 3 3s3-1.3431458 3-3v-1.208c11.9414287-1.4381441 21.3538559-10.8505713 22.792-22.792h1.208c1.6568542 0 3-1.3431458 3-3s-1.3431458-3-3-3zm-3.221 0h-2.009c-1.3357609-9.759797-9.010203-17.43423906-18.77-18.77v-2.009c10.8378537 1.4110759 19.3679241 9.9411463 20.779 20.779zm-20.779 20.732c7.5620233-1.2428507 13.4891493-7.1699767 14.732-14.732h2.02c-1.304463 8.654282-8.097718 15.447537-16.752 16.752zm0-2.024v-.708c-.0017997-.439013-.1011986-.8721325-.291-1.268 5.5649676-1.1078725 9.9151275-5.4580324 11.023-11.023.3958675.1898014.828987.2892003 1.268.291h.708c-1.2009648 6.4561018-6.2518982 11.5070352-12.708 12.708zm-20.732-12.708c1.2428507 7.5620233 7.1699767 13.4891493 14.732 14.732v2.02c-8.654282-1.304463-15.447537-8.097718-16.752-16.752zm14.732 12.708c-6.4561018-1.2009648-11.5070352-6.2518982-12.708-12.708h.708c.439013-.0017997.8721325-.1011986 1.268-.291 1.1078725 5.5649676 5.4580324 9.9151275 11.023 11.023-.1898014.3958675-.2892003.828987-.291 1.268zm0-33.44c-7.5620233 1.2428507-13.4891493 7.1699767-14.732 14.732h-2.02c1.304463-8.654282 8.097718-15.447537 16.752-16.752zm0 2.024v.708c.0017997.439013.1011986.8721325.291 1.268-5.5649676 1.1078725-9.9151275 5.4580324-11.023 11.023-.3958675-.1898014-.828987-.2892003-1.268-.291h-.708c1.2009648-6.4561018 6.2518982-11.5070352 12.708-12.708zm-9 15.708c0-6.627417 5.372583-12 12-12s12 5.372583 12 12-5.372583 12-12 12c-6.624447-.0071648-11.9928352-5.375553-12-12zm14.709-13.732c.1898014-.3958675.2892003-.828987.291-1.268v-.708c6.4561018 1.2009648 11.5070352 6.2518982 12.708 12.708h-.708c-.439013.0017997-.8721325.1011986-1.268.291-1.1078725-5.5649676-5.4580324-9.9151275-11.023-11.023zm15.023 10.732c-1.2428507-7.5620233-7.1699767-13.4891493-14.732-14.732v-2.02c8.654282 1.304463 15.447537 8.097718 16.752 16.752zm-18.732-24c0-.55228475.4477153-1 1-1s1 .44771525 1 1v12c0 .5522847-.4477153 1-1 1s-1-.4477153-1-1zm-2 3.221v2.009c-9.759797 1.33576094-17.43423906 9.010203-18.77 18.77h-2.009c1.4110759-10.8378537 9.9411463-19.3679241 20.779-20.779zm-25 23.779c0-.5522847.44771525-1 1-1h12c.5522847 0 1 .4477153 1 1s-.4477153 1-1 1h-12c-.55228475 0-1-.4477153-1-1zm4.221 3h2.009c1.33576094 9.759797 9.010203 17.4342391 18.77 18.77v2.009c-10.8378537-1.4110759-19.3679241-9.9411463-20.779-20.779zm24.779 24c0 .5522847-.4477153 1-1 1s-1-.4477153-1-1v-12c0-.5522847.4477153-1 1-1s1 .4477153 1 1zm2-3.221v-2.009c9.759797-1.3357609 17.4342391-9.010203 18.77-18.77h2.009c-1.4110759 10.8378537-9.9411463 19.3679241-20.779 20.779zm24-22.779h-12c-.5522847 0-1-.4477153-1-1s.4477153-1 1-1h12c.5522847 0 1 .4477153 1 1s-.4477153 1-1 1z"/><path id="Shape" d="m3 6h12c1.6568542 0 3-1.34314575 3-3s-1.3431458-3-3-3h-12c-1.65685425 0-3 1.34314575-3 3s1.34314575 3 3 3zm0-4h12c.5522847 0 1 .44771525 1 1s-.4477153 1-1 1h-12c-.55228475 0-1-.44771525-1-1s.44771525-1 1-1z"/><path id="Shape" d="m59.707.293c-.3904999-.39038194-1.0235001-.39038194-1.414 0l-.793.793-.793-.793c-.3923789-.37897221-1.0160848-.37355237-1.4018186.01218143-.3857338.38573379-.3911536 1.00943968-.0121814 1.40181857l.793.793-.793.793c-.2599566.25107447-.3642126.62287789-.2726972.97250732.0915155.34962944.3645604.6226744.7141899.71418984.3496294.09151544.7214328-.01274058.9725073-.27269716l.793-.793.793.793c.3923789.37897221 1.0160848.37355237 1.4018186-.01218142.3857338-.3857338.3911536-1.00943969.0121814-1.40181858l-.793-.793.793-.793c.3903819-.39049985.3903819-1.02350015 0-1.414z"/><path id="Shape" d="m48.293 4.707c.3904999.39038194 1.0235001.39038194 1.414 0l.793-.793.793.793c.3923789.37897221 1.0160848.37355237 1.4018186-.01218142.3857338-.3857338.3911536-1.00943969.0121814-1.40181858l-.793-.793.793-.793c.3789722-.39237889.3735524-1.01608478-.0121814-1.40181857-.3857338-.3857338-1.0094397-.39115364-1.4018186-.01218143l-.793.793-.793-.793c-.3923789-.37897221-1.0160848-.37355237-1.4018186.01218143-.3857338.38573379-.3911536 1.00943968-.0121814 1.40181857l.793.793-.793.793c-.3903819.39049985-.3903819 1.02350015 0 1.414z"/><path id="Shape" d="m41.293 4.707c.3904999.39038194 1.0235001.39038194 1.414 0l.793-.793.793.793c.3923789.37897221 1.0160848.37355237 1.4018186-.01218142.3857338-.3857338.3911536-1.00943969.0121814-1.40181858l-.793-.793.793-.793c.3789722-.39237889.3735524-1.01608478-.0121814-1.40181857-.3857338-.3857338-1.0094397-.39115364-1.4018186-.01218143l-.793.793-.793-.793c-.3923789-.37897221-1.0160848-.37355237-1.4018186.01218143-.3857338.38573379-.3911536 1.00943968-.0121814 1.40181857l.793.793-.793.793c-.3903819.39049985-.3903819 1.02350015 0 1.414z"/><path id="Shape" d="m37 29h-3.142c-.3658904-1.3993145-1.4586855-2.4921096-2.858-2.858v-3.142c0-.5522847-.4477153-1-1-1s-1 .4477153-1 1v3.142c-1.3993145.3658904-2.4921096 1.4586855-2.858 2.858h-3.142c-.5522847 0-1 .4477153-1 1s.4477153 1 1 1h3.142c.3658904 1.3993145 1.4586855 2.4921096 2.858 2.858v3.142c0 .5522847.4477153 1 1 1s1-.4477153 1-1v-3.142c1.3993145-.3658904 2.4921096-1.4586855 2.858-2.858h3.142c.5522847 0 1-.4477153 1-1s-.4477153-1-1-1zm-7 3c-1.1045695 0-2-.8954305-2-2s.8954305-2 2-2 2 .8954305 2 2-.8954305 2-2 2z"/></g></g></g></svg>